<?xml version="1.0" encoding="UTF-8"?>
<svg id="Ebene_2" data-name="Ebene 2" xmlns="http://www.w3.org/2000/svg" viewBox="0 0 383.3 302.51">
  <defs>
    <style>
      .cls-1 {
        fill: #e2f263;
      }
    </style>
  </defs>
  <g id="Ebene_1-2" data-name="Ebene 1">
    <g>
      <path class="cls-1" d="M111.19,120.09c-.06.06-.11.13-.17.2.13-.15.25-.29.38-.43-.07.07-.14.15-.21.23ZM110.68,120.77c.11-.17.22-.32.34-.47-.05.06-.1.12-.15.19-.06.09-.13.18-.19.28ZM110.07,121.86c.09-.19.19-.38.29-.56h-.01c-.1.18-.19.36-.28.56ZM109.92,122.21c.04-.12.1-.23.15-.34h-.01c-.05.11-.1.22-.14.34ZM109.57,123.13c.07-.23.15-.44.23-.65-.08.2-.16.41-.23.63v.02ZM108.79,126.79c.03-.25.06-.49.1-.72-.04.2-.06.41-.09.62,0,.03-.01.06-.01.1ZM108.7,127.72c.02-.25.04-.5.07-.75,0,.02-.01.04-.01.06-.02.22-.05.45-.06.69ZM108.61,131.71c.02.85.07,1.73.16,2.62-.08-.89-.13-1.77-.16-2.62Z"/>
      <path class="cls-1" d="M375.97,190.29l-66.48-66.48v-56.42c0-7.44-6.03-13.47-13.47-13.47h-23.54c-7.43,0-13.46,6.03-13.46,13.47v5.94l-33.07-33.07c-9.16-9.16-21.34-14.2-34.3-14.2s-25.14,5.04-34.3,14.2L7.33,190.29c-9.77,9.76-9.77,25.59,0,35.36,9.76,9.76,25.59,9.76,35.35,0l31.51-31.51c4.82,60.65,55.57,108.37,117.46,108.37s112.64-47.72,117.46-108.37l31.51,31.51c4.88,4.88,11.28,7.32,17.68,7.32s12.79-2.44,17.67-7.32c9.77-9.77,9.77-25.6,0-35.36ZM275,131.09c0,.26,0,.53-.02.8-.01.41-.03.83-.06,1.26-.01.17-.02.35-.04.52-.06.89-.16,1.81-.28,2.73-.06.51-.14,1.03-.22,1.55-.08.52-.17,1.04-.27,1.56-.01.1-.03.19-.05.28-.08.42-.16.85-.26,1.27-.2.96-.42,1.92-.67,2.87-.06.23-.12.46-.19.69-.13.49-.28.99-.43,1.48-.11.39-.23.79-.36,1.17,0,.01-.01.03-.01.04-.15.45-.3.89-.45,1.32-.02.05-.03.09-.05.13-.13.37-.27.74-.41,1.11-.16.44-.34.88-.52,1.31-.16.4-.32.78-.49,1.16-.3.68-.62,1.34-.94,1.97-.17.33-.33.64-.51.96-.16.3-.33.59-.5.88-.04.07-.08.14-.12.2-.09.16-.19.32-.29.48-.1.16-.21.33-.32.49-.42.65-.86,1.25-1.31,1.81-.11.14-.22.27-.34.41-.86,1.02-1.77,1.86-2.71,2.46-.08.06-.16.11-.24.15-.43.27-.87.48-1.31.64-.11.04-.22.08-.33.11-.11.04-.22.07-.33.09-.22.06-.45.1-.67.13-.42.06-.85.07-1.28.01-1.05-.1-2.11-.52-3.18-1.29-.13-.09-.26-.18-.4-.27,2.62,7.21,4.05,14.99,4.05,23.1,0,37.41-30.43,67.84-67.84,67.84s-67.84-30.43-67.84-67.84c0-8.01,1.39-15.69,3.95-22.83-5.08,3.65-9.97-.63-13.54-7.73-.47-.93-.92-1.92-1.33-2.94-.13-.3-.25-.6-.37-.91-.07-.18-.14-.36-.21-.54-.14-.36-.27-.73-.4-1.1-.01-.01-.01-.02-.01-.03-.17-.49-.34-.98-.5-1.48-.13-.38-.24-.76-.35-1.14-.08-.23-.14-.45-.2-.68-.34-1.16-.64-2.33-.9-3.51-.1-.43-.2-.87-.28-1.31-.1-.46-.19-.92-.26-1.38-.13-.69-.24-1.38-.33-2.06-.07-.46-.13-.91-.17-1.36-.06-.46-.11-.9-.14-1.34-.09-.89-.14-1.77-.16-2.62-.04-1.11-.03-2.19.04-3.22.02-.5.06-.99.11-1.46,0-.02.01-.04.01-.06,0-.06.01-.12.02-.18,0-.04.01-.07.01-.1.05-.44.12-.87.2-1.28.01-.1.03-.19.05-.29.14-.71.31-1.38.52-2.01.07-.22.15-.43.23-.63.04-.1.07-.18.12-.27.04-.12.09-.23.14-.34,0-.01.01-.01.01-.01.09-.2.18-.38.28-.56.01,0,.01-.01.01-.01.16-.29.33-.55.51-.8.05-.07.1-.13.15-.19h0c.06-.08.11-.15.17-.21.07-.08.14-.16.21-.23.13-.14.26-.26.4-.38h0c.19-.17.4-.32.61-.45.33-.2.67-.36,1.04-.47.24-.08.49-.14.75-.18,1.31-.2,2.85.08,4.66.92,7.15,3.33,13.54,6.09,18.82,8.29.63.26,1.23.51,1.83.75.11.05.22.1.33.14,3.69,1.51,6.75,2.7,9.03,3.57,11.68-9.51,26.57-15.22,42.77-15.22h.31c16.12.07,30.93,5.8,42.55,15.3,2.26-.86,5.32-2.05,9.03-3.56,3.64-1.49,7.9-3.29,12.66-5.39.92-.42,1.86-.84,2.82-1.27.39-.17.78-.35,1.17-.53.54-.24,1.08-.49,1.64-.74.12-.06.25-.12.37-.17.33-.16.65-.31.98-.46.51-.23,1.02-.47,1.54-.71,7.54-3.52,10.43,2.87,10.28,11.79Z"/>
      <path class="cls-1" d="M260.3,163.12c-.42.06-.85.07-1.28.01.43.05.86.04,1.28-.01Z"/>
      <path class="cls-1" d="M283.75,42.07c-5.8-2.8-9.35-5.46-10.8-10.52-.81-9.15,1.79-18.4,6.7-26.3C280.76,3.51,282.07,1.75,283.75,0,283.75,0,284.75,0,284.75,0c1.68,1.75,2.99,3.51,4.1,5.26,4.91,7.9,7.5,17.14,6.7,26.3-1.45,5.06-5,7.72-10.8,10.52,0,0-1,0-1,0h0Z"/>
      <g>
        <ellipse class="cls-1" cx="168.87" cy="167.7" rx="8.14" ry="14.81"/>
        <ellipse class="cls-1" cx="214.43" cy="167.7" rx="8.14" ry="14.81"/>
      </g>
      <path class="cls-1" d="M223.3,209.99c0,10.59-8.59,19.18-19.19,19.18-4.61,0-8.85-1.63-12.16-4.35-3.31,2.72-7.55,4.35-12.17,4.35-10.6,0-19.19-8.59-19.19-19.18,0-.09,0-.19.01-.28,3.98,5.32,10.33,8.76,17.49,8.76,2.87,0,5.62-.55,8.13-1.57,2.09-.83,4.02-1.98,5.73-3.38,1.71,1.41,3.64,2.55,5.73,3.38,2.51,1.02,5.25,1.57,8.12,1.57,7.15,0,13.51-3.43,17.49-8.75.01.09.01.18.01.27Z"/>
      <path class="cls-1" d="M196.02,187.59c1.47,0,2.94.43,4.08,1.36s1.96,2.24,2.24,3.73c.37,1.92-.13,3.74-1.17,5.12-1.17,1.57-3.04,2.58-5.15,2.58-.85,0-1.65-.16-2.39-.46-.62-.24-1.18-.58-1.69-1-.5.41-1.07.75-1.69,1-.74.3-1.55.46-2.39.46-2.11,0-3.98-1.01-5.15-2.58-1.03-1.37-1.52-3.17-1.17-5.08.21-1.11.71-2.13,1.43-2.96,1.22-1.42,3.07-2.15,4.95-2.15h8.09Z"/>
    </g>
  </g>
</svg>
